<svg id="visual" viewBox="0 0 960 540" width="960" height="540" xmlns="http://www.w3.org/2000/svg" xmlns:xlink="http://www.w3.org/1999/xlink" version="1.1"><rect x="0" y="0" width="960" height="540" fill="#3e0c1e"></rect><path d="M0 356L22.8 345.7C45.7 335.3 91.3 314.7 137 302.7C182.7 290.7 228.3 287.3 274 300C319.7 312.7 365.3 341.3 411.2 346.8C457 352.3 503 334.7 548.8 327.7C594.7 320.7 640.3 324.3 686 330.7C731.7 337 777.3 346 823 337.3C868.7 328.7 914.3 302.3 937.2 289.2L960 276L960 541L937.2 541C914.3 541 868.7 541 823 541C777.3 541 731.7 541 686 541C640.3 541 594.7 541 548.8 541C503 541 457 541 411.2 541C365.3 541 319.7 541 274 541C228.3 541 182.7 541 137 541C91.3 541 45.7 541 22.8 541L0 541Z" fill="#4e002f"></path><path d="M0 305L22.8 317.8C45.7 330.7 91.3 356.3 137 363.3C182.7 370.3 228.3 358.7 274 350C319.7 341.3 365.3 335.7 411.2 332.7C457 329.7 503 329.3 548.8 336.5C594.7 343.7 640.3 358.3 686 356.8C731.7 355.3 777.3 337.7 823 338.5C868.7 339.3 914.3 358.7 937.2 368.3L960 378L960 541L937.2 541C914.3 541 868.7 541 823 541C777.3 541 731.7 541 686 541C640.3 541 594.7 541 548.8 541C503 541 457 541 411.2 541C365.3 541 319.7 541 274 541C228.3 541 182.7 541 137 541C91.3 541 45.7 541 22.8 541L0 541Z" fill="#590235"></path><path d="M0 341L22.8 339C45.7 337 91.3 333 137 338.2C182.7 343.3 228.3 357.7 274 365.3C319.7 373 365.3 374 411.2 371.3C457 368.7 503 362.3 548.8 363.8C594.7 365.3 640.3 374.7 686 378C731.7 381.3 777.3 378.7 823 379.8C868.7 381 914.3 386 937.2 388.5L960 391L960 541L937.2 541C914.3 541 868.7 541 823 541C777.3 541 731.7 541 686 541C640.3 541 594.7 541 548.8 541C503 541 457 541 411.2 541C365.3 541 319.7 541 274 541C228.3 541 182.7 541 137 541C91.3 541 45.7 541 22.8 541L0 541Z" fill="#64043b"></path><path d="M0 347L22.8 353.2C45.7 359.3 91.3 371.7 137 375C182.7 378.3 228.3 372.7 274 371.8C319.7 371 365.3 375 411.2 379.5C457 384 503 389 548.8 386C594.7 383 640.3 372 686 374.2C731.7 376.3 777.3 391.7 823 394.7C868.7 397.7 914.3 388.3 937.2 383.7L960 379L960 541L937.2 541C914.3 541 868.7 541 823 541C777.3 541 731.7 541 686 541C640.3 541 594.7 541 548.8 541C503 541 457 541 411.2 541C365.3 541 319.7 541 274 541C228.3 541 182.7 541 137 541C91.3 541 45.7 541 22.8 541L0 541Z" fill="#6f0741"></path><path d="M0 427L22.8 429.2C45.7 431.3 91.3 435.7 137 430.8C182.7 426 228.3 412 274 409.3C319.7 406.7 365.3 415.3 411.2 421.7C457 428 503 432 548.8 431.5C594.7 431 640.3 426 686 416.3C731.7 406.7 777.3 392.3 823 385.5C868.7 378.7 914.3 379.3 937.2 379.7L960 380L960 541L937.2 541C914.3 541 868.7 541 823 541C777.3 541 731.7 541 686 541C640.3 541 594.7 541 548.8 541C503 541 457 541 411.2 541C365.3 541 319.7 541 274 541C228.3 541 182.7 541 137 541C91.3 541 45.7 541 22.8 541L0 541Z" fill="#7b0b47"></path><path d="M0 427L22.8 427.8C45.7 428.7 91.3 430.3 137 423.8C182.7 417.3 228.3 402.7 274 396.7C319.7 390.7 365.3 393.3 411.2 399.2C457 405 503 414 548.8 419.2C594.7 424.3 640.3 425.7 686 421.7C731.7 417.7 777.3 408.3 823 408.3C868.7 408.3 914.3 417.7 937.2 422.3L960 427L960 541L937.2 541C914.3 541 868.7 541 823 541C777.3 541 731.7 541 686 541C640.3 541 594.7 541 548.8 541C503 541 457 541 411.2 541C365.3 541 319.7 541 274 541C228.3 541 182.7 541 137 541C91.3 541 45.7 541 22.8 541L0 541Z" fill="#870f4d"></path><path d="M0 442L22.8 441.5C45.7 441 91.3 440 137 437.7C182.7 435.3 228.3 431.7 274 435.8C319.7 440 365.3 452 411.2 450.7C457 449.3 503 434.7 548.8 436C594.7 437.3 640.3 454.7 686 462.2C731.7 469.7 777.3 467.3 823 458.7C868.7 450 914.3 435 937.2 427.5L960 420L960 541L937.2 541C914.3 541 868.7 541 823 541C777.3 541 731.7 541 686 541C640.3 541 594.7 541 548.8 541C503 541 457 541 411.2 541C365.3 541 319.7 541 274 541C228.3 541 182.7 541 137 541C91.3 541 45.7 541 22.8 541L0 541Z" fill="#931353"></path><path d="M0 436L22.8 444C45.7 452 91.3 468 137 470.3C182.7 472.7 228.3 461.3 274 454.5C319.7 447.7 365.3 445.3 411.2 448C457 450.7 503 458.3 548.8 458.5C594.7 458.7 640.3 451.3 686 449.2C731.7 447 777.3 450 823 448.7C868.7 447.3 914.3 441.7 937.2 438.8L960 436L960 541L937.2 541C914.3 541 868.7 541 823 541C777.3 541 731.7 541 686 541C640.3 541 594.7 541 548.8 541C503 541 457 541 411.2 541C365.3 541 319.7 541 274 541C228.3 541 182.7 541 137 541C91.3 541 45.7 541 22.8 541L0 541Z" fill="#a01758"></path><path d="M0 487L22.8 487.5C45.7 488 91.3 489 137 483.8C182.7 478.7 228.3 467.3 274 467.2C319.7 467 365.3 478 411.2 484.2C457 490.3 503 491.7 548.8 489.3C594.7 487 640.3 481 686 480C731.7 479 777.3 483 823 480.2C868.7 477.3 914.3 467.7 937.2 462.8L960 458L960 541L937.2 541C914.3 541 868.7 541 823 541C777.3 541 731.7 541 686 541C640.3 541 594.7 541 548.8 541C503 541 457 541 411.2 541C365.3 541 319.7 541 274 541C228.3 541 182.7 541 137 541C91.3 541 45.7 541 22.8 541L0 541Z" fill="#ac1b5e"></path><path d="M0 513L22.8 510.7C45.7 508.3 91.3 503.7 137 497.7C182.7 491.7 228.3 484.3 274 486C319.7 487.7 365.3 498.3 411.2 500C457 501.7 503 494.3 548.8 489.5C594.7 484.7 640.3 482.3 686 485.3C731.7 488.3 777.3 496.7 823 497.2C868.7 497.7 914.3 490.3 937.2 486.7L960 483L960 541L937.2 541C914.3 541 868.7 541 823 541C777.3 541 731.7 541 686 541C640.3 541 594.7 541 548.8 541C503 541 457 541 411.2 541C365.3 541 319.7 541 274 541C228.3 541 182.7 541 137 541C91.3 541 45.7 541 22.8 541L0 541Z" fill="#b91f63"></path><path d="M0 530L22.8 528.7C45.7 527.3 91.3 524.7 137 519C182.7 513.3 228.3 504.7 274 504.3C319.7 504 365.3 512 411.2 517C457 522 503 524 548.8 520.3C594.7 516.7 640.3 507.3 686 509C731.7 510.7 777.3 523.3 823 524C868.7 524.7 914.3 513.3 937.2 507.7L960 502L960 541L937.2 541C914.3 541 868.7 541 823 541C777.3 541 731.7 541 686 541C640.3 541 594.7 541 548.8 541C503 541 457 541 411.2 541C365.3 541 319.7 541 274 541C228.3 541 182.7 541 137 541C91.3 541 45.7 541 22.8 541L0 541Z" fill="#c62368"></path></svg>